<?xml version="1.0" encoding="iso-8859-1"?>
<!-- Generator: Adobe Illustrator 19.0.0, SVG Export Plug-In . SVG Version: 6.00 Build 0)  -->
<svg version="1.1" id="Layer_1" xmlns="http://www.w3.org/2000/svg" xmlns:xlink="http://www.w3.org/1999/xlink" x="0px" y="0px"
	 viewBox="0 0 512 512" style="enable-background:new 0 0 512 512;" xml:space="preserve">
<g>
	<g>
		<rect x="82.992" y="111.952" width="183.12" height="16"/>
	</g>
</g>
<g>
	<g>
		<rect x="1.6" y="178.08" width="264.512" height="16"/>
	</g>
</g>
<g>
	<g>
		<path d="M335.664,75.872V230.16H512V75.872H335.664z M496,214.176H351.664V91.872H496V214.176z"/>
	</g>
</g>
<g>
	<g>
		<polygon points="463.168,124.992 451.856,113.664 423.824,141.696 395.792,113.664 384.48,124.992 412.512,153.008 384.48,181.04 
			395.792,192.352 423.824,164.336 451.856,192.352 463.168,181.04 435.136,153.008 		"/>
	</g>
</g>
<g>
	<g>
		<rect x="81.392" y="317.92" width="183.12" height="16"/>
	</g>
</g>
<g>
	<g>
		<rect y="384" width="264.512" height="16"/>
	</g>
</g>
<g>
	<g>
		<path d="M335.664,281.84v154.288H512V281.84H335.664z M496,420.112H351.664V297.824H496V420.112z"/>
	</g>
</g>
<g>
	<g>
		<polygon points="463.168,330.96 451.856,319.648 423.824,347.664 395.792,319.648 384.48,330.96 412.512,358.992 384.48,387.008 
			395.792,398.336 423.824,370.304 451.856,398.336 463.168,387.008 435.136,358.992 		"/>
	</g>
</g>
<g>
</g>
<g>
</g>
<g>
</g>
<g>
</g>
<g>
</g>
<g>
</g>
<g>
</g>
<g>
</g>
<g>
</g>
<g>
</g>
<g>
</g>
<g>
</g>
<g>
</g>
<g>
</g>
<g>
</g>
</svg>
